Coordinates
version=1
nRows=6
nColumns=36
inDegrees=yes

Units are S.I. units (second, meters, Newtons, ...)
If the header above contains a line with 'inDegrees', this indicates whether rotational values are in degrees (yes) or radians (no).

endheader
time	pelvis_tilt	pelvis_list	pelvis_rotation	pelvis_tx	pelvis_ty	pelvis_tz	hip_flexion_r	hip_adduction_r	hip_rotation_r	knee_angle_r	knee_angle_r_beta	ankle_angle_r	subtalar_angle_r	mtp_angle_r	hip_flexion_l	hip_adduction_l	hip_rotation_l	knee_angle_l	knee_angle_l_beta	ankle_angle_l	subtalar_angle_l	mtp_angle_l	lumbar_extension	lumbar_bending	lumbar_rotation	arm_flex_r	arm_add_r	arm_rot_r	elbow_flex_r	pro_sup_r	arm_flex_l	arm_add_l	arm_rot_l	elbow_flex_l	pro_sup_l
      0.00000000	      6.73655372	     -2.53733857	      1.65898671	     -0.74544313	      1.34560458	     -0.06734510	    -13.02111872	      3.78302503	      4.36296643	      3.47934429	      0.06072601	     -1.11095712	    -18.42341114	     -5.62225144	    -14.53082505	     -3.85548167	      6.02067449	      1.00019698	      0.01745673	     11.18872368	     -3.78249547	     -5.62225144	    -15.35575036	      3.60650899	     -0.34759330	      6.91981511	     -5.96083175	     19.39768728	     26.99725178	     73.94174384	      3.65547539	     -4.47269642	     12.75024344	     27.00059841	     70.06748664
      0.01666670	      2.55731249	     -2.07928081	      1.95471231	     -0.74122049	      1.33765072	     -0.06883606	     -7.99441956	      3.00528859	      4.25664229	      4.49756192	      0.07849726	      2.91179600	    -12.31683040	     -6.11194638	     -9.27177908	     -2.83472482	      8.07892182	      1.42673620	      0.02490124	     10.23003903	     -2.67022719	     -6.11194638	     -8.77404799	      3.14508732	     -1.15239213	      5.17501870	     -5.68789915	     18.16637741	     26.27828856	     71.96063122	      2.12830307	     -4.48059774	     11.40877005	     25.86354150	     68.28443720
      0.03333330	      1.45508000	     -1.53135844	      2.23683658	     -0.74027654	      1.33404061	     -0.06861159	     -7.39284455	      2.17120628	      3.52158298	      3.45329669	      0.06027140	      3.58769523	    -10.69605159	     -6.87044391	     -8.15317268	     -2.30460214	      8.20514609	      1.25750055	      0.02194752	      9.39788319	     -1.95241176	     -6.87044391	     -6.91739810	      2.22947021	     -1.59355081	      4.35080275	     -4.99562028	     15.02117315	     26.56028625	     79.56999995	      2.06766776	     -5.34057795	     12.64094576	     25.62567585	     72.11855352
      0.05000000	      1.66997914	     -1.23127199	      2.48745979	     -0.74052917	      1.33472893	     -0.06900764	     -8.01651197	      1.81521141	      2.96392326	      2.81432568	      0.04911925	      4.74469505	     -9.27310424	     -7.10311161	     -8.74294820	     -2.00759288	      8.55013707	      0.81235881	      0.01417834	      9.16342380	     -1.74326513	     -7.10311161	     -7.10948844	      1.59571857	     -1.71709087	      4.22176666	     -4.88174123	     16.22497397	     27.23639901	     76.22957845	      2.28933406	     -6.11228007	     14.56707388	     25.86788997	     70.61042267
      0.06666670	      1.83050652	     -1.14400447	      2.72612939	     -0.74045762	      1.33467024	     -0.06903868	     -8.52921866	      1.74104673	      2.72055745	      2.35495622	      0.04110174	      5.72557230	     -8.47782768	     -7.31768442	     -9.03929874	     -1.95789769	      8.78016537	      0.64567929	      0.01126923	      9.25657217	     -1.81878582	     -7.31768442	     -7.26834795	      1.33164170	     -1.84368155	      3.97968007	     -5.01190072	     18.96311161	     27.48448726	     73.38128582	      2.66815762	     -6.69349422	     17.61805587	     25.79021789	     70.33545642
      0.08333330	      1.80128548	     -1.02808993	      2.82667783	     -0.74089797	      1.33505001	     -0.06928985	     -8.63684779	      1.60543150	      2.51777109	      2.06294122	      0.03600512	      6.35040731	     -8.20749614	     -7.40938115	     -9.07918520	     -1.89470836	      9.11906720	      0.52184560	      0.00910792	      9.34661076	     -1.76089212	     -7.40938115	     -7.28478789	      1.03452540	     -1.76681889	      3.73216255	     -5.03800112	     20.27781678	     27.85012779	     70.38191365	      2.86667740	     -6.83599778	     18.27001631	     26.05955235	     68.60273538
